<svg id="Слой_1" data-name="Слой 1" xmlns="http://www.w3.org/2000/svg" viewBox="0 0 24 24"><defs><style>.cls-1{fill:none;}.cls-2{fill:#808185;}</style></defs><path class="cls-1" d="M12,14.3A2.4,2.4,0,0,0,14.3,12,2.4,2.4,0,0,0,12,9.7,2.4,2.4,0,0,0,9.7,12,2.4,2.4,0,0,0,12,14.3Z"/><path class="cls-2" d="M17.1,16.8A9.8,9.8,0,0,1,12,18.2,9.9,9.9,0,0,1,2.8,12,10.7,10.7,0,0,1,6.9,7.2a.8.8,0,0,0,.3-1.1.9.9,0,0,0-1.1-.2,11.9,11.9,0,0,0-4.8,5.8.6.6,0,0,0,0,.6A11.4,11.4,0,0,0,12,19.7a10.7,10.7,0,0,0,5.9-1.6.8.8,0,0,0,.2-1A.7.7,0,0,0,17.1,16.8Z"/><path class="cls-2" d="M22.7,11.7A11.5,11.5,0,0,0,12,4.2H10.6a.7.7,0,0,0-.6.9.6.6,0,0,0,.8.6H12A10,10,0,0,1,21.2,12a10.9,10.9,0,0,1-1.4,2.3.9.9,0,0,0,.2,1.1.7.7,0,0,0,1-.2,12.2,12.2,0,0,0,1.7-2.9A.6.6,0,0,0,22.7,11.7Z"/><path class="cls-2" d="M12,15.8A3.8,3.8,0,1,0,8.2,12,3.8,3.8,0,0,0,12,15.8Zm0-6.1A2.4,2.4,0,0,1,14.3,12,2.4,2.4,0,0,1,12,14.3,2.4,2.4,0,0,1,9.7,12,2.4,2.4,0,0,1,12,9.7Z"/></svg>