<svg id="Слой_1" data-name="Слой 1" xmlns="http://www.w3.org/2000/svg" viewBox="0 0 24 24"><defs><style>.cls-1{fill:none;}.cls-2{fill:#808185;}</style></defs><path class="cls-1" d="M12,14.2a1.8,1.8,0,0,0,1-.2l-3-3a1.9,1.9,0,0,0-.3,1A2.3,2.3,0,0,0,12,14.2Z"/><path class="cls-1" d="M12,18.2a9.6,9.6,0,0,0,4.2-.9l-2.1-2.2A3.7,3.7,0,0,1,8.9,9.9L6.4,7.5A10.1,10.1,0,0,0,2.8,12,9.9,9.9,0,0,0,12,18.2Z"/><polygon class="cls-1" points="2 12 1.3 11.7 2 12 2 12"/><path class="cls-2" d="M1.3,11.7,2,12H2l-.7-.3a.6.6,0,0,0,0,.6A11.5,11.5,0,0,0,12,19.8a11.3,11.3,0,0,0,5.3-1.4l2.2,2.1a.7.7,0,0,0,1-1l-5.8-5.9h0L10.4,9.3h0L4.5,3.5a.7.7,0,0,0-1,0,.7.7,0,0,0,0,1L5.3,6.4A11.7,11.7,0,0,0,1.3,11.7ZM10,11l3,3a1.8,1.8,0,0,1-1,.2A2.3,2.3,0,0,1,9.7,12,1.9,1.9,0,0,1,10,11ZM6.4,7.5,8.9,9.9a3.7,3.7,0,0,0,5.2,5.2l2.1,2.2a9.6,9.6,0,0,1-4.2.9A9.9,9.9,0,0,1,2.8,12,10.1,10.1,0,0,1,6.4,7.5Z"/><path class="cls-2" d="M12,4.2H10.6a.7.7,0,0,0-.6.9.6.6,0,0,0,.8.6H12A9.9,9.9,0,0,1,21.2,12a10.9,10.9,0,0,1-1.4,2.3.9.9,0,0,0,.2,1.1.7.7,0,0,0,1-.2,12.2,12.2,0,0,0,1.7-2.9.6.6,0,0,0,0-.6A11.5,11.5,0,0,0,12,4.2Z"/></svg>